<svg width="127" height="48" viewBox="0 0 127 48" fill="none" xmlns="http://www.w3.org/2000/svg">
<g style="mix-blend-mode:luminosity" clip-path="url(#clip0_2145_207)">
<path fill-rule="evenodd" clip-rule="evenodd" d="M125.686 30.5633C120.43 38.4606 112.107 36.1691 109.607 34.3749C108.543 35.0147 106.677 36.417 104.19 36.255C98.8923 35.9104 96.9951 29.2007 96.9951 29.2007C97.0332 29.2275 95.4171 29.6949 94.5437 29.6866C94.5324 31.6542 92.6133 36.3546 87.434 36.2945C81.622 36.2273 80.4405 28.5531 80.4405 28.5531C80.4405 28.5531 79.8621 29.2649 77.663 29.9739C77.7737 28.4622 77.6928 36.0644 70.7269 36.1761C65.2199 36.2646 63.7334 28.4348 63.7334 28.4348C63.7334 28.4348 62.7781 29.3143 60.9266 29.6194C61.0443 28.0831 60.853 36.2019 53.8863 36.1761C49.1783 36.1588 47.5694 31.353 47.6945 30.686C47.8542 29.8359 46.1034 36.2957 41.5303 36.195C39.6431 36.1459 38.2361 34.9349 37.3533 33.3204C36.1714 34.5189 34.4555 36.195 32.5306 36.195C29.0753 36.195 27.552 33.6337 27.81 26.3179C27.832 25.4502 27.7614 25.109 26.7881 24.9792C26.204 24.8928 25.6058 24.7292 24.9728 24.643C24.7699 25.243 23.0492 35.9998 17.1323 36.204C15.1473 36.2725 14.0619 34.7485 13.1706 33.6174C11.8042 35.2194 10.0005 36.255 7.43096 36.255C3.07838 36.255 0.112823 33.1365 0.112823 29.2895C0.112823 25.4425 3.07838 22.3242 7.43096 22.3242C8.20055 22.3242 8.41658 22.422 9.11964 22.6038C7.67378 10.9365 11.0883 9.11303 14.0753 9.11303C16.943 9.11303 21.8422 15.012 14.9486 29.9751C16.4791 34.4381 19.7786 34.1857 21.3641 24.9982C21.6868 23.1307 20.8239 20.6105 22.166 20.2588C24.6193 19.616 24.8796 21.5446 26.0299 21.866C27.2462 22.2056 27.9561 22.1724 29.1238 22.3885C31.119 22.7339 31.8976 23.6838 31.6545 25.7996C31.3626 28.4767 30.8519 32.3732 32.409 32.8481C33.5318 33.1931 35.5818 31.1293 35.9416 30.0001C36.3011 28.871 36.3763 28.4845 36.4082 27.6563C36.4569 25.8861 36.5179 24.5886 36.8585 23.2499C37.0043 22.7319 37.1704 22.3888 37.8317 22.3654C38.3758 22.3531 39.3709 22.2079 39.8089 22.51C40.3927 22.8988 40.3198 23.2933 40.2527 24.3316C39.5738 39.1353 44.7997 31.7452 46.3579 25.8279C45.8031 19.1369 46.184 9.23555 50.9149 9.06949C53.3753 8.98313 54.463 10.7301 54.5826 12.034C54.9211 15.7168 53.0254 21.8172 50.5324 25.9197C49.1076 34.2907 56.7621 35.9459 57.9861 29.2642C55.9835 28.4202 53.8191 25.0044 55.5803 23.3397C56.5686 22.4055 60.6824 23.7476 60.7497 26.6748C62.7676 26.1965 63.037 25.1867 63.065 25.354C62.5103 18.663 63.0248 9.23564 67.756 9.06957C70.2161 8.98321 71.3036 10.7301 71.4233 12.0341C71.7617 15.7168 69.8661 21.8173 67.3734 25.9199C65.9484 34.2907 73.603 35.946 74.8268 29.2643C73.344 29.0107 70.2141 25.3775 72.02 23.3398C72.9851 22.2509 77.0838 24.5154 77.5427 26.7717C79.4812 26.2855 79.7444 25.3078 79.7722 25.4724C79.2174 18.7816 79.7319 9.35422 84.4631 9.18815C86.9231 9.10179 88.0107 10.8487 88.1303 12.1527C88.4688 15.8354 86.5731 21.936 84.0801 26.0385C82.6555 34.4095 90.3099 36.0644 91.534 29.3827C89.4964 29.082 86.6006 25.2458 88.9313 23.2833C89.8625 22.4992 93.4205 24.5346 94.2534 26.8568C95.4106 26.8173 96.131 26.4636 96.2854 26.4279C94.4379 18.573 95.8133 9.14836 100.903 9.06969C103.654 9.02721 106.343 10.3877 105.162 17.8606C104.036 24.9906 99.9854 27.9827 99.9949 28.0285C100.231 28.8827 102.309 36.0312 107.542 32.2594C107.272 31.7157 107 31.1603 106.849 30.4874C105.981 26.5677 107.685 22.1404 112.316 21.4249C114.969 21.0149 117.469 22.1598 117.864 24.741C118.514 28.9645 114.211 32.0233 112.575 32.6868C111.842 32.3178 119.218 36.5107 123.596 28.108C123.85 27.6282 124.156 27.6689 124.552 27.9162C124.832 28.0908 126.427 29.4299 125.686 30.5633ZM10.5971 28.2517C10.3743 27.6615 9.91722 26.361 9.75558 25.7976C8.86534 25.1114 8.22992 25 7.08722 25C4.54779 25 3.05312 27.0809 3.05312 29.3247C3.05312 31.5684 4.68145 33.6496 7.2209 33.6496C9.42162 33.6496 11.0966 32.3235 11.6076 30.4462C11.2499 29.7143 10.8951 29.0417 10.5971 28.2517ZM14.0131 12.2015C12.2288 12.2015 11.6235 15.974 11.7409 19.1924C11.8448 22.0378 12.742 24.5428 13.2073 25.6653C13.3255 25.8059 13.3035 25.7144 13.409 25.8636C16.5072 19.8472 15.2222 12.2015 14.0131 12.2015ZM51.1697 12.32C48.8635 12.0855 48.8784 20.6001 49.1647 22.51C50.3625 20.8118 52.4431 12.7772 51.1697 12.32ZM68.0103 12.32C65.7041 12.0855 65.719 20.6001 66.0055 22.51C67.2031 20.8118 69.2839 12.7772 68.0103 12.32ZM84.7176 12.4384C82.4112 12.204 82.4261 20.7186 82.7126 22.6287C83.9102 20.9303 85.991 12.8956 84.7176 12.4384ZM101.157 11.8215C97.5641 12.461 98.4008 23.0789 98.9465 24.9412C103.179 19.789 103.266 11.628 101.157 11.8215ZM114.623 25.0903C114.441 24.4133 113.527 24.0515 112.897 24.1407C111.093 24.359 109.343 26.3505 110.02 29.3824C110.171 30.0576 110.548 30.6792 110.542 30.6585C114.58 28.2577 114.923 26.3659 114.623 25.0903ZM38.539 20.0218C38.0233 20.0219 37.5193 19.8864 37.0905 19.6326C36.6617 19.3787 36.3275 19.0179 36.13 18.5957C35.9326 18.1735 35.881 17.7089 35.9816 17.2607C36.0821 16.8124 36.3304 16.4007 36.695 16.0775C37.0596 15.7543 37.5241 15.5342 38.0298 15.4451C38.5355 15.3559 39.0598 15.4016 39.5362 15.5765C40.0126 15.7514 40.4197 16.0476 40.7062 16.4276C40.9926 16.8076 41.1455 17.2544 41.1455 17.7114C41.1455 18.0148 41.0782 18.3152 40.9471 18.5955C40.8162 18.8758 40.6242 19.1305 40.3821 19.345C40.14 19.5596 39.8528 19.7298 39.5365 19.8459C39.2203 19.962 38.8814 20.0218 38.539 20.0218Z" fill="#0D0C22"/>
</g>
<defs>
<clipPath id="clip0_2145_207">
<rect width="126.369" height="48" fill="white" transform="translate(0.112823)"/>
</clipPath>
</defs>
</svg>
